#N canvas 645 91 706 344 10;
#X declare -lib mrpeach;
#X obj 268 42 import mrpeach;
#X obj 67 193 udpsend;
#X msg 173 177 disconnect;
#X obj 67 157 packOSC;
#X obj 67 218 tgl 15 0 empty empty connected 17 7 0 10 -262144 -1 -1
0 1;
#X msg 166 147 connect 127.0.0.1 12345;
#X text 37 244 Outgoing OSC connection;
#X obj 418 52 unpackOSC;
#X obj 418 26 udpreceive 12346;
#X obj 417 74 routeOSC /puredata;
#X text 420 235 Incoming OSC connection;
#X msg 67 112 /processing/circleSize \$1;
#X floatatom 67 80 5 0 0 0 - - -;
#X floatatom 427 100 5 0 0 0 - - -;
#X obj 428 139 osc~;
#X obj 570 510 dac~;
#X obj 570 478 *~ 0;
#X obj 624 319 vsl 15 128 0 1 0 0 empty empty empty 0 -9 0 10 -262144
-1 -1 0 1;
#X obj 586 72 mtof;
#X msg 585 35 60;
#X msg 627 33 61;
#X floatatom 670 35 5 0 0 0 - - -;
#X msg 543 35 64;
#X obj 36 351 inv;
#X obj 137 301 loadbang;
#X obj 133 513 dac~;
#X msg 291 412 \; pd dsp 1;
#X obj 260 372 trigger b b b;
#X msg 132 378 1;
#X obj 133 460 readsf~ 2;
#X obj 467 185 output~;
#X msg 350 287 \; pd dsp 1;
#X msg 454 287 \; pd dsp 0;
#X text 365 324 ON;
#X text 474 324 OFF;
#X obj 428 185 dac~;
#X obj 534 147 osc~ 110;
#X obj 606 128 * 2;
#X obj 606 152 osc~;
#X obj 670 152 osc~;
#X obj 670 128 * 3;
#X obj 734 153 osc~;
#X obj 734 129 * 4;
#X obj 670 177 *~ 0.2;
#X obj 606 177 *~ 0.1;
#X obj 734 177 *~ 0.5;
#X obj 607 274 *~;
#X obj 607 223 +~;
#X obj 607 247 +~;
#X msg 136 407 open relax.wav;
#X connect 1 0 4 0;
#X connect 2 0 1 0;
#X connect 3 0 1 0;
#X connect 5 0 1 0;
#X connect 7 0 9 0;
#X connect 8 0 7 0;
#X connect 9 0 13 0;
#X connect 11 0 3 0;
#X connect 12 0 11 0;
#X connect 13 0 14 0;
#X connect 14 0 35 0;
#X connect 14 0 35 1;
#X connect 16 0 15 0;
#X connect 17 0 16 1;
#X connect 18 0 36 0;
#X connect 18 0 37 0;
#X connect 18 0 40 0;
#X connect 18 0 42 0;
#X connect 19 0 18 0;
#X connect 20 0 18 0;
#X connect 21 0 18 0;
#X connect 22 0 18 0;
#X connect 24 0 27 0;
#X connect 27 0 28 0;
#X connect 27 1 49 0;
#X connect 27 2 26 0;
#X connect 28 0 29 0;
#X connect 29 0 25 0;
#X connect 29 1 25 1;
#X connect 36 0 16 0;
#X connect 36 0 30 0;
#X connect 36 0 30 1;
#X connect 37 0 38 0;
#X connect 38 0 44 0;
#X connect 39 0 43 0;
#X connect 40 0 39 0;
#X connect 41 0 45 0;
#X connect 42 0 41 0;
#X connect 43 0 47 1;
#X connect 44 0 47 0;
#X connect 45 0 48 1;
#X connect 46 0 16 0;
#X connect 47 0 48 0;
#X connect 48 0 46 0;
#X connect 49 0 29 0;
