#N canvas 87 531 807 634 10;
#X declare -lib mrpeach;
#X obj 268 42 import mrpeach;
#X obj 64 141 unpackOSC;
#X obj 63 163 routeOSC /puredata/playSound;
#X text 64 90 Incoming OSC messages;
#X msg 63 293 1;
#X obj 63 358 dac~;
#X obj 63 327 readsf~ 2;
#X obj 63 195 trigger b b;
#X obj 484 127 loadbang;
#X text 482 104 Turn on audio processing at startup;
#X obj 64 115 udpreceive 12346;
#X msg 484 158 \; pd dsp 1;
#X msg 126 267 open data/141259__eternitys__interface4.wav;
#X obj 254 197 routeOSC /puredata/playBgSound;
#X obj 510 236 trigger b b;
#X msg 472 276 1;
#X obj 476 486 dac~;
#X obj 129 366 bng 15 250 50 0 empty empty empty 17 7 0 10 -262144
-1 -1;
#X obj 586 455 bng 15 250 50 0 empty empty empty 17 7 0 10 -262144
-1 -1;
#X text 606 454 repeat sound;
#X obj 476 421 readsf~ 2;
#X msg 496 340 open data/196712__littleboot__wind-chimes.wav;
#X obj 438 456 *~ 0.2;
#X obj 515 458 *~ 0.2;
#X connect 1 0 2 0;
#X connect 1 0 13 0;
#X connect 2 0 7 0;
#X connect 4 0 6 0;
#X connect 6 0 5 0;
#X connect 6 1 5 1;
#X connect 6 2 17 0;
#X connect 7 0 4 0;
#X connect 7 1 12 0;
#X connect 8 0 11 0;
#X connect 10 0 1 0;
#X connect 12 0 6 0;
#X connect 13 0 14 0;
#X connect 14 0 15 0;
#X connect 14 1 21 0;
#X connect 15 0 20 0;
#X connect 18 0 14 0;
#X connect 20 0 22 0;
#X connect 20 1 23 0;
#X connect 20 2 18 0;
#X connect 21 0 20 0;
#X connect 22 0 16 0;
#X connect 23 0 16 1;
