#N canvas 19 23 1440 851 10;
#X declare -lib mrpeach;
#X obj 20 10 import mrpeach;
#X obj 21 82 unpackOSC;
#X text 92 79 Incoming OSC connection;
#X floatatom 20 140 5 0 0 0 - - -;
#X obj 20 104 routeOSC /ding /extrading;
#X obj 21 56 udpreceive 6003;
#X obj 1112 263 readsf~ 2;
#X obj 1346 141 vsl 15 128 0 1 0 0 empty empty Volume 0 -9 0 10 -262144
-1 -1 6350 1;
#X obj 1185 418 *~;
#X obj 1238 417 *~;
#X obj 1187 381 freeverb~;
#X text 753 620 Output;
#X msg 1395 211 roomsize \$1;
#X msg 1394 233 damping \$1;
#X msg 1395 255 width \$1;
#X msg 1394 305 wet \$1;
#X msg 1395 330 dry \$1;
#X text 1553 323 - level of unprocessed signal \, between 0 and 1 (default:
0);
#X text 1546 295 - level of reverbed signal \, between 0 and 1 (default:
0.3);
#X text 1464 256 - stereo width of reverb (default: 1);
#X floatatom 1453 331 5 0 1 0 - - -;
#X floatatom 1450 302 5 0 1 0 - - -;
#X obj 811 593 pddp/dsp;
#X obj 1110 190 loadbang;
#X msg 1112 234 open heights-depths-biosphere.wav \, 1;
#X obj 1195 266 bng 15 250 50 0 empty empty empty 17 7 0 10 -262144
-1 -1;
#X msg 1066 236 0;
#X text 1475 236 - amount of damping of room's surfaces (default: 0.5)
;
#X text 1479 214 - size of the room to be simulated (default=0.85)
;
#X floatatom 1420 176 5 0 1 0 - - -;
#X floatatom 1462 173 5 0 1 0 - - -;
#X obj 681 598 output~;
#X obj 1347 64 loadbang;
#X msg 1346 96 0.5;
#X obj 681 561 *~ 0.5;
#X obj 737 562 *~ 0.5;
#X msg 1423 149 1;
#X msg 1461 149 0;
#X msg 1492 301 1;
#X msg 1493 330 0;
#X obj 544 131 vsl 15 128 0 1 0 0 empty empty Volume 0 -9 0 10 -262144
-1 -1 3810 1;
#X obj 338 524 *~;
#X obj 391 523 *~;
#X obj 340 487 freeverb~;
#X msg 593 201 roomsize \$1;
#X msg 592 223 damping \$1;
#X msg 593 245 width \$1;
#X msg 592 295 wet \$1;
#X msg 593 320 dry \$1;
#X text 751 313 - level of unprocessed signal \, between 0 and 1 (default:
0);
#X text 744 285 - level of reverbed signal \, between 0 and 1 (default:
0.3);
#X text 662 246 - stereo width of reverb (default: 1);
#X floatatom 651 321 5 0 1 0 - - -;
#X floatatom 648 292 5 0 1 0 - - -;
#X text 673 226 - amount of damping of room's surfaces (default: 0.5)
;
#X text 677 204 - size of the room to be simulated (default=0.85);
#X floatatom 618 166 5 0 1 0 - - -;
#X floatatom 660 163 5 0 1 0 - - -;
#X obj 545 54 loadbang;
#X msg 690 291 1;
#X obj 567 561 *~ 0.5;
#X obj 623 562 *~ 0.5;
#X msg 659 139 0.5;
#X msg 621 139 0.8;
#X msg 691 320 1;
#X text 1135 85 Freeverb for atmospheric sounds;
#X text 672 121 Freeverb for star sounds;
#X obj 178 492 *~;
#X obj 116 642 bng 15 250 50 0 empty empty empty 17 7 0 10 -262144
-1 -1;
#X obj 133 840 line~;
#X obj 115 668 t b b;
#X obj 88 864 *~;
#X text 174 751 ramp to 1 in ... millisecond;
#X text 176 780 ramp to 0 in ...millisecond;
#X obj 144 729 delay 300;
#X obj 61 840 osc~ 1200;
#X msg 153 803 0 200;
#X msg 108 803 0.6 10;
#X obj 20 177 bng 15 250 50 0 empty empty empty 17 7 0 10 -262144 -1
-1;
#X obj 111 468 osc~;
#X obj 110 437 +~;
#X obj 125 400 *~;
#X obj 58 308 sig~;
#X floatatom 58 278 5 0 0 0 - - -;
#X text 15 257 carrier freqeuncy;
#X obj 139 369 osc~;
#X obj 150 293 sig~;
#X floatatom 150 263 5 0 0 0 - - -;
#X text 144 240 harmonicity;
#X obj 139 327 *~;
#X obj 192 369 *~;
#X obj 207 341 vline~;
#X obj 219 446 vline~;
#X text 244 393 amplitude;
#X text 223 287 modulation index;
#X obj 103 206 loadbang;
#X msg 102 239 440;
#X msg 544 86 0.3;
#X floatatom 92 139 5 0 0 0 - - -;
#X obj 91 164 bng 15 250 50 0 empty empty empty 17 7 0 10 -262144 -1
-1;
#X msg 232 238 1;
#X msg 205 310 1 100 \, 0.5 0 300 \, 0 500 1000;
#X msg 219 413 0.7 100 \, 0.5 0 300 \, 0 500 1000;
#X connect 1 0 4 0;
#X connect 3 0 78 0;
#X connect 3 0 83 0;
#X connect 4 0 3 0;
#X connect 4 1 98 0;
#X connect 5 0 1 0;
#X connect 6 0 10 0;
#X connect 6 1 10 1;
#X connect 6 2 25 0;
#X connect 7 0 8 1;
#X connect 7 0 9 1;
#X connect 8 0 34 0;
#X connect 9 0 35 0;
#X connect 10 0 8 0;
#X connect 10 1 9 0;
#X connect 12 0 10 0;
#X connect 13 0 10 0;
#X connect 15 0 10 0;
#X connect 16 0 10 0;
#X connect 20 0 16 0;
#X connect 21 0 15 0;
#X connect 23 0 24 0;
#X connect 24 0 6 0;
#X connect 25 0 24 0;
#X connect 26 0 6 0;
#X connect 29 0 12 0;
#X connect 30 0 13 0;
#X connect 32 0 33 0;
#X connect 32 0 36 0;
#X connect 32 0 37 0;
#X connect 32 0 38 0;
#X connect 32 0 39 0;
#X connect 33 0 7 0;
#X connect 34 0 31 0;
#X connect 35 0 31 1;
#X connect 36 0 29 0;
#X connect 37 0 30 0;
#X connect 38 0 21 0;
#X connect 39 0 20 0;
#X connect 40 0 41 1;
#X connect 40 0 42 1;
#X connect 41 0 60 0;
#X connect 42 0 61 0;
#X connect 43 0 41 0;
#X connect 43 1 42 0;
#X connect 44 0 43 0;
#X connect 45 0 43 0;
#X connect 47 0 43 0;
#X connect 48 0 43 0;
#X connect 52 0 48 0;
#X connect 53 0 47 0;
#X connect 56 0 44 0;
#X connect 57 0 45 0;
#X connect 58 0 63 0;
#X connect 58 0 62 0;
#X connect 58 0 59 0;
#X connect 58 0 64 0;
#X connect 58 0 97 0;
#X connect 59 0 53 0;
#X connect 60 0 31 0;
#X connect 61 0 31 1;
#X connect 62 0 57 0;
#X connect 63 0 56 0;
#X connect 64 0 52 0;
#X connect 67 0 43 0;
#X connect 67 0 43 1;
#X connect 68 0 70 0;
#X connect 69 0 71 1;
#X connect 70 0 74 0;
#X connect 70 1 77 0;
#X connect 74 0 76 0;
#X connect 75 0 71 0;
#X connect 76 0 69 0;
#X connect 77 0 69 0;
#X connect 78 0 102 0;
#X connect 78 0 101 0;
#X connect 79 0 67 0;
#X connect 80 0 79 0;
#X connect 81 0 80 1;
#X connect 82 0 80 0;
#X connect 82 0 89 0;
#X connect 83 0 82 0;
#X connect 85 0 81 0;
#X connect 86 0 89 1;
#X connect 87 0 86 0;
#X connect 89 0 85 0;
#X connect 89 0 90 0;
#X connect 90 0 81 1;
#X connect 91 0 90 1;
#X connect 92 0 67 1;
#X connect 95 0 96 0;
#X connect 95 0 100 0;
#X connect 96 0 83 0;
#X connect 97 0 40 0;
#X connect 98 0 99 0;
#X connect 100 0 87 0;
#X connect 101 0 91 0;
#X connect 102 0 92 0;
