#N canvas 295 110 594 533 10;
#X declare -lib mrpeach;
#X obj 52 41 import mrpeach;
#X obj 53 111 unpackOSC;
#X obj 53 85 udpreceive 12346;
#X obj 52 133 routeOSC /puredata;
#X floatatom 51 176 5 0 0 0 - - -;
#X text 98 161 carrier;
#X text 97 179 frequency;
#X obj 74 448 output~;
#X obj 113 312 vline~;
#X obj 92 398 *~;
#X msg 111 264 1 10 \, 0.5 100 100 \, 0 200 200;
#X obj 248 176 dac~;
#X obj 248 145 readsf~ 2;
#X msg 248 81 open space_ambience.wav;
#X msg 214 106 0;
#X msg 267 111 1;
#X obj 216 49 udpreceive 12347;
#X obj 336 159 bng 15 250 50 0 empty empty empty 17 7 0 10 -262144
-1 -1;
#X obj 23 322 osc~;
#X connect 1 0 3 0;
#X connect 2 0 1 0;
#X connect 3 0 4 0;
#X connect 4 0 10 0;
#X connect 4 0 18 0;
#X connect 8 0 9 1;
#X connect 9 0 7 0;
#X connect 9 0 7 1;
#X connect 10 0 8 0;
#X connect 12 0 11 0;
#X connect 12 1 11 1;
#X connect 12 2 17 0;
#X connect 13 0 12 0;
#X connect 13 0 15 0;
#X connect 14 0 12 0;
#X connect 15 0 12 0;
#X connect 16 0 13 0;
#X connect 17 0 13 0;
#X connect 18 0 9 0;
