#N canvas 374 61 1811 739 10;
#X declare -lib mrpeach;
#X obj 52 41 import mrpeach;
#X obj 53 111 unpackOSC;
#X obj 53 85 udpreceive 12346;
#X obj 52 133 routeOSC /puredata;
#X floatatom 51 176 5 0 0 0 - - -;
#X text 42 226 carrier;
#X text 36 240 frequency;
#X obj 153 610 output~;
#X obj 145 346 vline~;
#X obj 97 385 *~;
#X msg 145 313 1 10 \, 0.5 100 100 \, 0 200 200;
#X obj 1009 201 readsf~ 2;
#X msg 1009 137 open space_ambience.wav;
#X msg 975 162 0;
#X msg 1028 167 1;
#X obj 977 105 udpreceive 12347;
#X obj 1097 215 bng 15 250 50 0 empty empty empty 17 7 0 10 -262144
-1 -1;
#X obj 100 346 osc~;
#X obj 1221 90 vsl 15 128 0 1 0 0 empty empty Volume 0 -9 0 10 -262144
-1 -1 6350 1;
#X obj 1009 368 *~;
#X obj 1062 367 *~;
#X obj 1011 331 freeverb~;
#X msg 1270 160 roomsize \$1;
#X msg 1269 182 damping \$1;
#X msg 1270 204 width \$1;
#X msg 1269 254 wet \$1;
#X msg 1270 279 dry \$1;
#X text 1428 272 - level of unprocessed signal \, between 0 and 1 (default:
0);
#X text 1421 244 - level of reverbed signal \, between 0 and 1 (default:
0.3);
#X text 1339 205 - stereo width of reverb (default: 1);
#X floatatom 1328 280 5 0 1 0 - - -;
#X floatatom 1325 251 5 0 1 0 - - -;
#X text 1350 185 - amount of damping of room's surfaces (default: 0.5)
;
#X text 1354 163 - size of the room to be simulated (default=0.85)
;
#X floatatom 1295 125 5 0 1 0 - - -;
#X floatatom 1337 122 5 0 1 0 - - -;
#X obj 1222 13 loadbang;
#X msg 1221 45 0.5;
#X msg 1298 98 1;
#X msg 1336 98 0;
#X msg 1367 250 1;
#X msg 1368 279 0;
#X text 1026 15 Freeverb for atmospheric sounds;
#X obj 436 83 vsl 15 128 0 1 0 0 empty empty Volume 0 -9 0 10 -262144
-1 -1 3810 1;
#X obj 153 561 *~;
#X obj 206 560 *~;
#X obj 155 524 freeverb~;
#X msg 485 153 roomsize \$1;
#X msg 484 175 damping \$1;
#X msg 485 197 width \$1;
#X msg 484 247 wet \$1;
#X msg 485 272 dry \$1;
#X text 643 265 - level of unprocessed signal \, between 0 and 1 (default:
0);
#X text 636 237 - level of reverbed signal \, between 0 and 1 (default:
0.3);
#X text 554 198 - stereo width of reverb (default: 1);
#X floatatom 543 273 5 0 1 0 - - -;
#X floatatom 540 244 5 0 1 0 - - -;
#X text 565 178 - amount of damping of room's surfaces (default: 0.5)
;
#X text 569 156 - size of the room to be simulated (default=0.85);
#X floatatom 510 118 5 0 1 0 - - -;
#X floatatom 552 115 5 0 1 0 - - -;
#X obj 437 6 loadbang;
#X msg 582 243 1;
#X msg 551 91 0.5;
#X msg 513 91 0.8;
#X msg 583 272 1;
#X text 277 8 Freeverb for star sounds;
#X msg 436 38 0.3;
#X obj 253 565 *~ 0.5;
#X obj 309 566 *~ 0.5;
#X obj 103 274 t f b;
#X obj 268 628 pddp/dsp;
#X obj 448 599 route 1 2 3 4 5 6 7 8 9 10 11 12 13 14 15 16 17 18 19
20 21 22 23 24 25 26 27 28 29 30 31 32 33 34 35 36 37 38 39 40 41 42
43 44 45 46 47 48;
#X obj 104 212 + 59;
#X obj 104 240 mtof;
#X connect 1 0 3 0;
#X connect 2 0 1 0;
#X connect 3 0 4 0;
#X connect 3 0 73 0;
#X connect 8 0 9 1;
#X connect 9 0 46 0;
#X connect 9 0 46 1;
#X connect 10 0 8 0;
#X connect 11 0 21 0;
#X connect 11 1 21 1;
#X connect 11 2 16 0;
#X connect 12 0 11 0;
#X connect 12 0 14 0;
#X connect 13 0 11 0;
#X connect 14 0 11 0;
#X connect 15 0 12 0;
#X connect 16 0 12 0;
#X connect 17 0 9 0;
#X connect 18 0 19 1;
#X connect 18 0 20 1;
#X connect 19 0 68 0;
#X connect 20 0 69 0;
#X connect 21 0 19 0;
#X connect 21 1 20 0;
#X connect 22 0 21 0;
#X connect 23 0 21 0;
#X connect 25 0 21 0;
#X connect 26 0 21 0;
#X connect 30 0 26 0;
#X connect 31 0 25 0;
#X connect 34 0 22 0;
#X connect 35 0 23 0;
#X connect 36 0 37 0;
#X connect 36 0 38 0;
#X connect 36 0 39 0;
#X connect 36 0 40 0;
#X connect 36 0 41 0;
#X connect 37 0 18 0;
#X connect 38 0 34 0;
#X connect 39 0 35 0;
#X connect 40 0 31 0;
#X connect 41 0 30 0;
#X connect 43 0 44 1;
#X connect 43 0 45 1;
#X connect 44 0 7 0;
#X connect 45 0 7 1;
#X connect 46 0 44 0;
#X connect 46 1 45 0;
#X connect 47 0 46 0;
#X connect 48 0 46 0;
#X connect 50 0 46 0;
#X connect 51 0 46 0;
#X connect 55 0 51 0;
#X connect 56 0 50 0;
#X connect 59 0 47 0;
#X connect 60 0 48 0;
#X connect 61 0 64 0;
#X connect 61 0 63 0;
#X connect 61 0 62 0;
#X connect 61 0 65 0;
#X connect 61 0 67 0;
#X connect 62 0 56 0;
#X connect 63 0 60 0;
#X connect 64 0 59 0;
#X connect 65 0 55 0;
#X connect 67 0 43 0;
#X connect 68 0 7 0;
#X connect 69 0 7 1;
#X connect 70 0 17 0;
#X connect 70 1 10 0;
#X connect 73 0 74 0;
#X connect 74 0 70 0;
